<?xml version="1.0" standalone="no"?>
<!DOCTYPE svg PUBLIC "-//W3C//DTD SVG 20010904//EN"
 "http://www.w3.org/TR/2001/REC-SVG-20010904/DTD/svg10.dtd">
<svg version="1.0" xmlns="http://www.w3.org/2000/svg"
 width="200.000000pt" height="200.000000pt" viewBox="0 0 200.000000 200.000000"
 preserveAspectRatio="xMidYMid meet">

<g transform="translate(0.000000,200.000000) scale(0.100000,-0.100000)"
fill="#111111" stroke="none">
<path d="M749 1884 c17 -14 31 -34 31 -45 0 -10 4 -19 9 -19 19 0 61 -51 61
-75 0 -26 -16 -62 -37 -80 -6 -5 -13 -21 -15 -34 -2 -13 -10 -27 -18 -31 -8
-4 -29 -15 -47 -24 -17 -9 -49 -16 -71 -16 -38 0 -40 -2 -46 -35 -5 -26 -3
-40 9 -51 18 -18 20 -75 3 -92 -7 -7 -17 -27 -22 -44 -7 -20 -19 -34 -31 -36
-30 -6 -45 -22 -45 -49 0 -13 -7 -35 -16 -49 -13 -20 -16 -39 -11 -91 4 -37
11 -71 17 -77 5 -5 10 -17 10 -24 0 -8 16 -30 35 -49 19 -19 35 -37 35 -40 0
-3 20 -23 44 -44 40 -35 45 -46 51 -94 8 -60 18 -73 40 -55 16 14 61 6 90 -16
16 -12 18 -18 7 -34 -6 -11 -12 -29 -12 -41 0 -11 -9 -34 -20 -49 -11 -16 -23
-42 -26 -58 -5 -26 0 -35 42 -76 27 -25 54 -46 61 -46 22 0 113 -98 113 -122
1 -13 7 -34 15 -48 11 -21 11 -27 -1 -41 -12 -13 -11 -20 7 -55 24 -44 46 -70
36 -41 -8 22 9 23 17 0 5 -13 10 -9 25 18 23 43 46 46 112 15 29 -15 54 -26
55 -26 9 0 12 36 3 52 -20 38 -4 63 51 78 27 7 50 15 50 17 0 2 -6 12 -12 23
-10 16 -10 24 0 41 8 12 16 42 18 66 2 25 9 54 15 64 5 11 9 25 8 32 -3 25 1
37 14 37 8 0 20 12 28 27 8 16 16 30 19 33 3 3 15 26 28 51 20 41 22 51 12 94
-6 27 -16 55 -22 62 -7 9 -7 17 2 28 6 8 9 19 5 25 -4 6 -1 17 5 25 9 11 11
108 5 407 -4 216 -11 398 -15 403 -4 6 -11 26 -15 45 -4 19 -18 53 -31 75 -18
31 -22 49 -17 78 l6 37 -347 0 -348 0 31 -26z"/>
</g>
</svg>
