<?xml version="1.0" standalone="no"?>
<!DOCTYPE svg PUBLIC "-//W3C//DTD SVG 20010904//EN"
 "http://www.w3.org/TR/2001/REC-SVG-20010904/DTD/svg10.dtd">
<svg version="1.0" xmlns="http://www.w3.org/2000/svg"
 width="1534.000000pt" height="303.000000pt" viewBox="0 0 1534.000000 303.000000"
 preserveAspectRatio="xMidYMid meet">

<g transform="translate(0.000000,303.000000) scale(0.100000,-0.100000)"
fill="#1C1B22" stroke="none">
<path d="M1330 3013 c-96 -15 -237 -50 -323 -79 -459 -159 -833 -568 -951
-1039 -24 -98 -52 -272 -44 -280 2 -2 321 313 708 700 668 668 703 705 670
704 -19 -1 -46 -4 -60 -6z"/>
<path d="M930 2106 c-486 -487 -886 -889 -888 -894 -5 -16 37 -169 69 -250
164 -414 517 -745 939 -880 112 -36 286 -72 347 -72 4 0 -220 228 -500 508
l-507 507 105 105 105 105 603 -601 602 -601 40 9 c96 23 216 63 285 94 l74
35 -667 667 -667 667 107 108 108 107 691 -691 690 -690 79 73 c85 80 178 185
173 198 -2 5 -120 127 -263 272 l-259 263 394 5 395 5 16 89 c10 49 20 133 24
187 l7 99 -611 0 -610 0 -136 135 c-74 75 -135 138 -135 140 0 3 328 5 729 5
l729 0 -13 58 c-18 74 -56 185 -91 262 l-27 60 -656 0 -656 0 145 145 145 145
412 0 c232 0 413 4 413 9 0 14 -179 181 -255 238 -83 63 -222 140 -325 183
-80 33 -232 80 -259 80 -9 0 -414 -398 -901 -884z"/>
<path d="M4415 2746 c-303 -70 -512 -278 -571 -566 -24 -119 -16 -296 19 -403
35 -109 98 -210 182 -292 158 -155 359 -225 608 -212 169 9 284 47 417 137 95
64 98 50 -46 222 -180 216 -157 198 -196 161 -53 -52 -122 -78 -203 -77 -86 0
-143 24 -203 85 -143 146 -94 420 90 499 44 19 65 22 133 18 87 -5 130 -21
182 -71 l32 -30 24 29 c14 16 79 94 146 174 l121 145 -37 33 c-48 42 -177 106
-268 133 -92 27 -340 36 -430 15z"/>
<path d="M6005 2745 c-86 -19 -186 -57 -252 -96 -74 -43 -198 -168 -241 -241
-119 -202 -132 -479 -34 -703 87 -200 258 -343 487 -407 103 -29 297 -35 406
-14 279 57 492 233 572 473 153 465 -85 890 -556 989 -85 17 -299 17 -382 -1z
m282 -430 c66 -20 134 -80 164 -147 33 -73 34 -221 3 -289 -51 -109 -140 -169
-254 -169 -159 0 -267 113 -278 292 -13 226 159 374 365 313z"/>
<path d="M7350 2016 l0 -706 235 0 235 0 0 253 c0 241 1 251 18 229 9 -12 71
-126 137 -252 l120 -230 273 0 c149 0 272 2 272 5 0 2 -79 131 -175 286 -97
155 -174 283 -173 284 2 1 18 10 37 20 61 31 137 111 165 175 99 219 17 473
-184 575 -113 57 -123 59 -557 63 l-403 3 0 -705z m629 333 c65 -14 91 -45 91
-106 0 -37 -5 -50 -31 -74 -34 -31 -73 -42 -164 -43 l-60 -1 -3 104 c-1 58 0
111 2 118 7 16 94 17 165 2z"/>
<path d="M8922 2523 l3 -198 173 -3 172 -2 0 -505 0 -505 240 0 240 0 0 505 0
505 175 0 175 0 0 200 0 200 -590 0 -590 0 2 -197z"/>
<path d="M10530 2015 l0 -705 505 0 505 0 0 195 0 195 -280 0 -280 0 0 70 0
70 245 0 245 0 0 185 0 185 -245 0 -245 0 0 60 0 60 260 0 260 0 0 195 0 195
-485 0 -485 0 0 -705z"/>
<path d="M11860 2717 c0 -1 100 -284 221 -627 122 -344 233 -660 247 -702 l26
-78 267 0 267 0 10 28 c5 15 103 283 217 597 114 314 224 618 245 678 l39 107
-268 0 -268 0 -21 -77 c-11 -43 -62 -239 -113 -436 -51 -197 -96 -354 -100
-350 -4 4 -58 200 -120 436 l-113 427 -268 0 c-147 0 -268 -1 -268 -3z"/>
<path d="M13703 2032 c-149 -378 -275 -695 -279 -705 -6 -16 8 -17 246 -15
l253 3 27 81 c47 138 16 125 273 122 l222 -3 35 -100 35 -100 259 -3 c243 -2
258 -1 252 15 -4 10 -127 327 -274 706 l-267 687 -255 0 -255 0 -272 -688z
m582 14 l53 -166 -114 0 c-63 0 -114 4 -114 8 0 6 88 276 105 321 3 8 8 11 11
8 3 -3 30 -80 59 -171z"/>
<path d="M14870 2700 c0 -16 7 -20 30 -20 l30 0 0 -85 c0 -84 0 -85 25 -85 25
0 25 1 25 85 l0 85 30 0 c23 0 30 4 30 20 0 18 -7 20 -85 20 -78 0 -85 -2 -85
-20z"/>
<path d="M15090 2614 c0 -104 0 -105 23 -102 20 3 22 10 27 73 l5 69 23 -72
c31 -96 52 -98 81 -9 31 91 36 93 36 14 0 -67 2 -72 23 -75 22 -3 22 -2 22
103 l0 106 -37 -3 c-35 -3 -37 -5 -58 -68 l-22 -65 -21 58 c-12 32 -22 62 -22
67 0 6 -18 10 -40 10 l-40 0 0 -106z"/>
<path d="M5626 994 c-40 -39 -8 -114 48 -114 27 0 66 39 66 66 0 11 -7 30 -16
42 -18 26 -74 30 -98 6z"/>
<path d="M6946 988 c-22 -32 -20 -61 7 -86 27 -26 54 -28 85 -6 26 18 30 74 6
98 -24 24 -80 20 -98 -6z"/>
<path d="M4060 805 c-177 -56 -233 -301 -99 -434 86 -87 235 -95 316 -19 l23
21 0 -31 0 -32 55 0 55 0 0 245 0 245 -55 0 c-54 0 -55 0 -55 -30 0 -30 0 -30
-19 -11 -51 51 -145 70 -221 46z m170 -114 c99 -71 93 -222 -10 -273 -134 -67
-275 67 -216 205 35 85 153 120 226 68z"/>
<path d="M4735 809 c-142 -33 -225 -208 -165 -348 66 -152 266 -203 374 -95
l29 29 -5 -64 c-4 -58 -8 -67 -41 -97 -24 -23 -48 -34 -69 -35 -91 -4 -148 13
-168 51 -10 18 -13 19 -38 6 -15 -8 -36 -21 -47 -29 -20 -15 -20 -16 10 -47
54 -57 99 -74 200 -75 82 0 95 3 144 30 32 18 64 46 80 69 l26 39 3 279 3 278
-51 0 c-49 0 -50 -1 -50 -30 l0 -31 -37 30 c-59 46 -118 58 -198 40z m163
-116 c43 -32 65 -69 69 -120 14 -162 -190 -226 -291 -91 -26 37 -27 112 0 159
41 72 158 100 222 52z"/>
<path d="M6004 811 c-82 -21 -124 -70 -124 -148 0 -78 37 -111 162 -148 76
-22 103 -44 95 -78 -15 -56 -132 -57 -176 -1 l-20 26 -41 -23 c-22 -12 -40
-28 -40 -33 0 -20 52 -68 94 -87 54 -25 148 -25 202 0 76 34 109 107 82 179
-17 46 -61 76 -147 102 -78 23 -111 44 -111 70 0 25 37 50 73 50 33 0 83 -24
89 -42 4 -10 14 -8 42 7 48 26 51 31 32 60 -33 50 -142 84 -212 66z"/>
<path d="M6545 811 c-45 -12 -107 -46 -131 -73 -93 -102 -90 -271 6 -365 54
-53 95 -68 185 -68 69 0 86 4 127 27 47 28 91 74 86 90 -2 5 -20 19 -41 31
l-37 21 -27 -26 c-54 -51 -111 -60 -178 -28 -104 50 -113 202 -16 267 25 17
48 23 87 23 48 0 59 -4 93 -35 l38 -35 42 23 c22 12 41 27 41 32 0 18 -73 83
-111 99 -45 19 -125 27 -164 17z"/>
<path d="M7380 807 c-129 -36 -198 -137 -188 -271 8 -96 52 -166 133 -209 54
-30 202 -31 255 -3 36 19 90 65 90 76 0 3 -18 16 -40 29 l-40 22 -26 -20 c-75
-59 -199 -43 -244 32 -11 18 -20 35 -20 40 0 4 87 7 194 7 221 0 215 -2 201
83 -10 60 -28 98 -65 141 -62 70 -160 98 -250 73z m153 -113 c23 -16 57 -69
57 -88 0 -3 -65 -6 -145 -6 -121 0 -145 2 -145 15 0 19 58 84 84 96 34 14 120
5 149 -17z"/>
<path d="M8027 806 c-22 -8 -50 -24 -63 -37 l-24 -22 0 26 c0 26 -2 27 -55 27
l-55 0 0 -245 0 -245 55 0 55 0 0 155 c0 174 7 201 63 235 39 24 78 25 118 4
50 -25 59 -64 59 -239 l0 -155 51 0 51 0 -4 193 c-3 190 -3 194 -30 234 -43
66 -144 97 -221 69z"/>
<path d="M8599 807 c-161 -45 -234 -228 -152 -378 49 -90 137 -135 249 -126
72 5 140 39 173 86 12 16 21 32 21 35 0 3 -18 15 -40 26 l-40 21 -39 -31 c-49
-40 -98 -48 -156 -25 -117 44 -130 208 -23 276 51 32 138 23 181 -18 l32 -31
37 19 c20 10 39 23 43 28 9 16 -52 78 -98 100 -55 26 -131 34 -188 18z"/>
<path d="M9178 811 c-59 -12 -129 -62 -161 -113 -57 -91 -47 -229 20 -308 57
-66 102 -85 209 -85 83 0 94 2 139 30 26 17 54 39 61 51 13 19 11 22 -26 43
l-40 22 -26 -20 c-76 -60 -198 -44 -244 32 -11 18 -20 35 -20 40 0 4 87 7 194
7 193 0 194 0 199 23 6 25 -5 99 -21 138 -16 40 -71 98 -112 119 -44 22 -120
32 -172 21z m148 -122 c23 -22 54 -69 54 -84 0 -3 -65 -5 -145 -5 -101 0 -145
3 -145 11 0 24 42 77 73 93 47 24 129 17 163 -15z"/>
<path d="M5425 798 c-11 -6 -32 -22 -47 -36 l-28 -26 0 32 0 32 -55 0 -55 0 0
-245 0 -245 55 0 55 0 0 156 0 156 34 34 c22 22 47 35 75 40 l41 7 0 53 c0 52
-1 54 -27 54 -16 0 -37 -6 -48 -12z"/>
<path d="M5620 555 l0 -245 50 0 50 0 0 245 0 245 -50 0 -50 0 0 -245z"/>
<path d="M6940 555 l0 -245 55 0 55 0 0 245 0 245 -55 0 -55 0 0 -245z"/>
</g>
</svg>
