<svg width="190" height="60" viewBox="0 0 190 60" fill="none" xmlns="http://www.w3.org/2000/svg">
<g clip-path="url(#clip0_1042_9773)">
<path d="M27.9276 49.5029V54.1653C27.1962 53.959 21.4325 52.2128 18.5163 48.04C18.2581 47.5497 17.4068 45.5535 18.3875 43.0589C18.7492 42.147 19.3335 41.1833 20.3319 40.2114C20.4177 45.1408 26.8352 49.003 27.9283 49.5022L27.9276 49.5029Z" fill="#FFFDFA"/>
<path d="M47.146 33.6999C47.146 33.6999 34.2164 32.4781 24.6416 37.2441C15.7465 41.6743 18.1383 47.2663 18.5251 48.0407C16.5984 45.2879 15.5571 41.0382 18.1035 36.401C24.9685 23.8929 44.4538 24.9424 47.1378 25.1488L47.1467 33.6999H47.146Z" fill="url(#paint0_linear_1042_9773)"/>
<path d="M51.4216 0.270228V13.6732C51.4216 13.6732 32.2808 11.6341 16.0734 19.5315C-0.219952 27.4718 1.93896 42.6727 3.6082 45.4684C1.23408 41.5715 -1.38999 33.5277 0.915349 25.4328C7.72852 1.53425 37.5882 -0.942712 51.4216 0.270228Z" fill="url(#paint1_linear_1042_9773)"/>
<path d="M27.9276 55.4738V59.9905C21.7941 58.8981 9.5782 55.2075 3.60817 45.4693C2.44699 43.5767 1.38864 36.5653 4.70056 30.1396C4.23609 42.6736 18.1893 52.4207 27.9276 55.4745V55.4738Z" fill="#FFFDFA"/>
<path d="M65.2978 25.8371H74.5198C75.1478 25.8371 75.6551 26.3445 75.6551 26.9724V28.1765C75.6551 28.8044 75.1478 29.3118 74.5198 29.3118H67.9389V32.796H73.9437C74.5716 32.796 75.079 33.3034 75.079 33.9313V35.1354C75.079 35.7633 74.5716 36.2707 73.9437 36.2707H67.9389V41.811C67.9389 42.4389 67.4315 42.9463 66.8036 42.9463H65.3067C64.6788 42.9463 64.1714 42.4389 64.1714 41.811V26.9717C64.1625 26.3438 64.6706 25.8364 65.2985 25.8364L65.2978 25.8371Z" fill="#FFFDFA"/>
<path d="M106.014 29.2179C105.644 29.6136 105.05 29.6994 104.586 29.4161C104.414 29.3126 104.224 29.2268 104.036 29.158C103.562 28.9857 103.055 28.891 102.548 28.8829C102.264 28.8829 101.98 28.9176 101.704 28.9775C101.42 29.0374 101.145 29.141 100.878 29.2785C100.629 29.4073 100.414 29.5966 100.25 29.8207C100.087 30.0617 100.001 30.3539 100.009 30.6468C100.009 31.163 100.199 31.5587 100.585 31.8338C100.972 32.109 101.463 32.3412 102.048 32.5394C102.633 32.7287 103.269 32.9262 103.949 33.1155C104.612 33.3049 105.257 33.58 105.851 33.9417C106.444 34.3033 106.943 34.7848 107.313 35.3698C107.7 35.9637 107.898 36.7632 107.889 37.7616C107.889 38.7164 107.709 39.5426 107.356 40.2563C107.02 40.9448 106.521 41.555 105.919 42.0195C105.291 42.501 104.577 42.8538 103.812 43.0602C101.962 43.5675 100 43.5076 98.1855 42.8878C97.6005 42.6815 97.0502 42.3975 96.5339 42.0447C96.0177 41.6919 95.889 40.9864 96.2418 40.4701C96.2677 40.4272 96.3017 40.3843 96.3453 40.3414L97.4207 39.1625C97.8252 38.7239 98.4872 38.6722 98.9605 39.042C99.1839 39.2143 99.425 39.3689 99.6831 39.4894C100.535 39.911 101.516 40.0227 102.445 39.8075C102.737 39.7387 103.03 39.627 103.288 39.4806C103.529 39.343 103.735 39.1537 103.89 38.9214C104.044 38.6892 104.131 38.4052 104.122 38.1212C104.122 37.605 103.924 37.2004 103.528 36.8994C103.133 36.5984 102.633 36.3491 102.04 36.1339C101.446 35.9276 100.801 35.7124 100.105 35.506C99.425 35.3078 98.78 35.0157 98.1691 34.6629C97.5753 34.3101 97.0679 33.8286 96.681 33.2606C96.2854 32.6844 96.0872 31.9183 96.0872 30.9634C96.0872 30.0086 96.2676 29.2343 96.6293 28.5464C96.9821 27.8667 97.4724 27.2735 98.0833 26.8002C98.7112 26.3187 99.4168 25.9659 100.173 25.7507C100.965 25.5185 101.791 25.3979 102.616 25.3979C103.571 25.3979 104.509 25.5355 105.421 25.8107C105.877 25.9482 106.324 26.1376 106.737 26.3787C107.279 26.6885 107.469 27.3852 107.159 27.9273C107.116 27.9961 107.064 28.0649 107.012 28.1255L106.015 29.2179H106.014Z" fill="#FFFDFA"/>
<path d="M115.494 29.175H111.744C111.116 29.175 110.608 28.6676 110.608 28.0397V26.9732C110.608 26.3453 111.116 25.8379 111.744 25.8379H123.022C123.65 25.8379 124.157 26.3453 124.157 26.9732V28.0397C124.157 28.6676 123.65 29.175 123.022 29.175H119.271V41.8295C119.271 42.4574 118.764 42.9648 118.136 42.9648H116.639C116.011 42.9648 115.504 42.4574 115.504 41.8295V29.175H115.495H115.494Z" fill="#FFFDFA"/>
<path d="M127.667 26.9727C127.667 26.3448 128.175 25.8374 128.802 25.8374H134.033C134.876 25.8374 135.719 25.915 136.553 26.0785C137.293 26.2161 137.99 26.5001 138.618 26.9128C139.212 27.3173 139.694 27.8676 140.021 28.5125C140.365 29.1834 140.537 30.0265 140.537 31.0419C140.537 32.0574 140.373 32.8828 140.055 33.5625C139.763 34.2074 139.298 34.7666 138.722 35.18C138.154 35.5845 137.492 35.8685 136.718 36.0401C135.891 36.2124 135.048 36.2982 134.197 36.2894H131.435V41.8297C131.435 42.4576 130.928 42.965 130.3 42.965H128.803C128.175 42.965 127.668 42.4576 127.668 41.8297V26.9727H127.667ZM131.444 33.098H133.964C134.291 33.098 134.618 33.0633 134.945 33.0033C135.246 32.9434 135.53 32.831 135.788 32.6764C136.037 32.5219 136.244 32.3066 136.39 32.0485C136.545 31.7816 136.622 31.4465 136.622 31.0419C136.622 30.6033 136.519 30.2594 136.321 29.9925C136.115 29.7255 135.848 29.511 135.547 29.3734C135.211 29.227 134.858 29.1323 134.497 29.0982C134.128 29.0553 133.758 29.0383 133.388 29.0383H131.452L131.444 33.0987V33.098Z" fill="#FFFDFA"/>
<path d="M148.408 25.8374H150.043C150.498 25.8374 150.903 26.1044 151.084 26.5171L157.544 41.3741C157.793 41.9502 157.527 42.6217 156.959 42.871C156.812 42.9309 156.658 42.9657 156.503 42.9657H154.748C154.284 42.9657 153.871 42.6817 153.699 42.2601L152.512 39.3439H145.853L144.709 42.2512C144.537 42.6898 144.115 42.9738 143.651 42.9738H141.99C141.362 42.9738 140.855 42.4665 140.855 41.8385C140.855 41.6839 140.89 41.5287 140.95 41.3911L147.367 26.5341C147.548 26.1037 147.961 25.8374 148.408 25.8374H148.408ZM149.114 30.8186L147.032 36.1436H151.213L149.114 30.8186Z" fill="#FFFDFA"/>
<path d="M83.6302 25.8374H85.2647C85.7203 25.8374 86.1248 26.1044 86.3053 26.5171L92.7657 41.3741C93.015 41.9502 92.7487 42.6217 92.1807 42.871C92.0343 42.9309 91.8797 42.9657 91.7251 42.9657H89.9618C89.4974 42.9657 89.0847 42.6817 88.9124 42.2601L87.7164 39.3439H81.0667L79.9226 42.2512C79.7503 42.6898 79.3287 42.9738 78.8642 42.9738H77.2038C76.5759 42.9738 76.0685 42.4665 76.0685 41.8385C76.0685 41.6839 76.1033 41.5287 76.1632 41.3911L82.5807 26.5341C82.7612 26.1037 83.1746 25.8374 83.6302 25.8374ZM84.3357 30.8186L82.2538 36.1436H86.4436L84.3357 30.8186Z" fill="#FFFDFA"/>
<path d="M162.499 29.175H158.749C158.121 29.175 157.613 28.6676 157.613 28.0397V26.9732C157.613 26.3453 158.121 25.8379 158.749 25.8379H170.027C170.655 25.8379 171.162 26.3453 171.162 26.9732V28.0397C171.162 28.6676 170.655 29.175 170.027 29.175H166.276V41.8295C166.276 42.4574 165.769 42.9648 165.141 42.9648H163.644C163.016 42.9648 162.509 42.4574 162.509 41.8295L162.5 29.175H162.499Z" fill="#FFFDFA"/>
<path d="M175.868 25.8374H177.365C177.993 25.8374 178.5 26.3448 178.5 26.9727V32.2201H185.83V26.9727C185.83 26.3448 186.337 25.8374 186.965 25.8374H188.462C189.09 25.8374 189.597 26.3448 189.597 26.9727V41.8297C189.597 42.4576 189.09 42.965 188.462 42.965H186.956C186.328 42.965 185.821 42.4576 185.821 41.8297V35.5586H178.491V41.8297C178.491 42.4576 177.984 42.965 177.356 42.965H175.859C175.231 42.965 174.724 42.4576 174.724 41.8297V26.9727C174.733 26.3448 175.24 25.8374 175.868 25.8374Z" fill="#FFFDFA"/>
</g>
<defs>
<linearGradient id="paint0_linear_1042_9773" x1="16.5937" y1="36.5399" x2="47.146" y2="36.5399" gradientUnits="userSpaceOnUse">
<stop stop-color="#FFFDFA"/>
<stop offset="0.12" stop-color="#FFFDFA"/>
<stop offset="0.27" stop-color="#FFFDFA"/>
<stop offset="0.44" stop-color="#FFFDFA"/>
<stop offset="0.63" stop-color="#FFFDFA"/>
<stop offset="0.82" stop-color="#FFFDFA"/>
<stop offset="1" stop-color="#FFFDFA"/>
</linearGradient>
<linearGradient id="paint1_linear_1042_9773" x1="0.0238618" y1="22.7454" x2="51.4216" y2="22.7454" gradientUnits="userSpaceOnUse">
<stop stop-color="#FFFDFA"/>
<stop offset="0.12" stop-color="#FFFDFA"/>
<stop offset="0.27" stop-color="#FFFDFA"/>
<stop offset="0.44" stop-color="#FFFDFA"/>
<stop offset="0.63" stop-color="#FFFDFA"/>
<stop offset="0.82" stop-color="#FFFDFA"/>
<stop offset="1" stop-color="#FFFDFA"/>
</linearGradient>
<clipPath id="clip0_1042_9773">
<rect width="189.603" height="60" fill="#FFFDFA"/>
</clipPath>
</defs>
</svg>
