<?xml version="1.0" encoding="UTF-8"?>
<!DOCTYPE svg PUBLIC "-//W3C//DTD SVG 1.1//EN" "http://www.w3.org/Graphics/SVG/1.1/DTD/svg11.dtd">
<svg xmlns="http://www.w3.org/2000/svg" version="1.1" width="500px" height="237px" style="shape-rendering:geometricPrecision; text-rendering:geometricPrecision; image-rendering:optimizeQuality; fill-rule:evenodd; clip-rule:evenodd" xmlns:xlink="http://www.w3.org/1999/xlink">
<g><path style="opacity:1" fill="#1C1B22" d="M 65.5,19.5 C 78.8333,19.5 92.1667,19.5 105.5,19.5C 105.5,31.5 105.5,43.5 105.5,55.5C 93.4954,55.3335 81.4954,55.5001 69.5,56C 65.763,57.2811 63.263,59.7811 62,63.5C 61.5003,71.1594 61.3336,78.8261 61.5,86.5C 76.1667,86.5 90.8333,86.5 105.5,86.5C 105.5,97.8333 105.5,109.167 105.5,120.5C 90.8333,120.5 76.1667,120.5 61.5,120.5C 61.5,152.833 61.5,185.167 61.5,217.5C 47.1667,217.5 32.8333,217.5 18.5,217.5C 18.0396,163.81 18.5396,110.143 20,56.5C 27.4129,34.5535 42.5796,22.2202 65.5,19.5 Z"/></g>
<g><path style="opacity:1" fill="#1C1B22" d="M 124.5,19.5 C 138.833,19.5 153.167,19.5 167.5,19.5C 167.333,71.5011 167.5,123.501 168,175.5C 171.725,180.885 176.892,182.885 183.5,181.5C 183.5,193.5 183.5,205.5 183.5,217.5C 168.917,218.872 155.25,216.038 142.5,209C 134.589,202.429 129.089,194.262 126,184.5C 124.521,129.538 124.021,74.5379 124.5,19.5 Z"/></g>
<g><path style="opacity:1" fill="#1C1B22" d="M 199.5,82.5 C 213.5,82.5 227.5,82.5 241.5,82.5C 241.333,108.502 241.5,134.502 242,160.5C 245.1,177.803 254.933,183.303 271.5,177C 274.231,174.374 276.064,171.207 277,167.5C 277.5,139.169 277.667,110.835 277.5,82.5C 291.833,82.5 306.167,82.5 320.5,82.5C 320.5,127.5 320.5,172.5 320.5,217.5C 306.167,217.5 291.833,217.5 277.5,217.5C 277.662,215.473 277.495,213.473 277,211.5C 271.914,214.529 266.414,216.362 260.5,217C 245.644,219.101 231.644,216.101 218.5,208C 208.298,199.099 202.132,187.933 200,174.5C 199.5,143.835 199.333,113.168 199.5,82.5 Z"/></g>
<g><path style="opacity:1" fill="#1C1B22" d="M 333.5,82.5 C 349.837,82.3334 366.17,82.5001 382.5,83C 390.788,93.7437 398.955,104.577 407,115.5C 414.446,104.387 422.279,93.5538 430.5,83C 446.844,82.1671 463.177,82.3337 479.5,83.5C 464.86,103.974 450.027,124.307 435,144.5C 433,147.5 433,150.5 435,153.5C 450.693,174.359 466.193,195.359 481.5,216.5C 465.844,217.666 450.177,217.833 434.5,217C 433.5,216.5 432.5,216 431.5,215.5C 398.012,171.692 365.346,127.359 333.5,82.5 Z"/></g>
<g><path style="opacity:1" fill="#1C1B22" d="M 375.5,156.5 C 377.017,156.511 378.184,157.177 379,158.5C 386.693,168.693 394.193,179.027 401.5,189.5C 396.025,198.95 389.692,207.784 382.5,216C 381.167,216.333 379.833,216.667 378.5,217C 363.156,217.833 347.822,217.666 332.5,216.5C 346.858,196.482 361.192,176.482 375.5,156.5 Z"/></g>
</svg>
