<!-- Generator: Adobe Illustrator 25.2.3, SVG Export Plug-In  -->
<svg version="1.1" xmlns="http://www.w3.org/2000/svg" xmlns:xlink="http://www.w3.org/1999/xlink" x="0px" y="0px"
	 width="564.17px" height="192.27px" viewBox="0 0 564.17 192.27"
	 style="overflow:visible;enable-background:new 0 0 564.17 192.27;" xml:space="preserve" fill="#FFFDFA">
<defs>
</defs>
<g>
	<path d="M101.63,103.87V0H59.58v31.94H41.05V0H0.19v103.87c0,0-2.41,29.02,9.81,39c16.02,13.08,31.05,10.58,31.05,10.58V46.1h18.52
		v107.34c0,0,22.36,2.29,34.42-13.1C104.45,127.01,101.63,103.87,101.63,103.87z"/>
	<path d="M414.61,151.73v-17.6h-22.28c0,0-4.8,0.57-8.41-2.63c-4.3-3.83-3.64-13.13-3.64-13.13V50.7c0,0,0-7.13,7.05-7.36
		c8.14-0.26,9.46,7.36,9.46,7.36l-0.06,52.86c-1.51,10.84-10.67,14.97-10.67,14.97s29.21,2.14,37.67-3.64
		c10.94-7.48,11.22-19.86,11.22-19.86l-0.06-27.77c-0.02-11.35-4.35-19.45-12.44-26.31c-10.61-9-20.75-9.41-31.46-9.71
		c-6.42-0.18-28.98-0.37-40.36,13.4c-8.9,10.76-9.6,22.62-9.6,22.62v45.29c0,0,0,13.44,9.9,24.74
		c14.04,16.02,29.33,14.45,29.33,14.45H414.61z"/>
	<path d="M310.81,0l-39.08,119.78V0h-38.7v70.94c5.83,2.92,9.87,8.89,9.87,15.85c0,6.96-4.04,12.93-9.87,15.85v49.13h9.74
		c28.96,0,41.3,1.67,57.2-14.98c5.56-5.82,10.89-18.39,10.89-18.39L356.71,0H310.81z"/>
	<path d="M207.03,86.79c0-6.64,3.88-13.22,9.34-15.83l0.01-38.74H177.4v105.91v0.04c-2.56,0.14-13.18,0.47-15.57-3.45
		c-2.72-4.47-2.1-16.03-2.1-16.03V32.22h-41.4v86.47c0,0,0.74,16.73,9.51,23.91c11.08,9.08,26.44,9.46,26.44,9.46h23.11l0,40.21
		h38.98l-0.01-89.63C210.98,99.58,207.03,93.43,207.03,86.79z"/>
	<path d="M519.35,151.49v-17.6h-22.28c0,0-4.78,0.55-8.41-2.63c-4.33-3.79-3.64-13.14-3.64-13.14V50.45c0,0,0-7.13,7.05-7.36
		c8.14-0.26,9.46,7.36,9.46,7.36l-0.06,52.86c-1.5,10.84-10.66,14.97-10.66,14.97s29.21,2.14,37.67-3.64
		c10.94-7.48,11.22-19.86,11.22-19.86L539.65,67c-0.02-11.35-4.35-19.45-12.44-26.31c-10.61-9-20.75-9.41-31.46-9.71
		c-6.42-0.18-28.97-0.37-40.36,13.4c-8.9,10.76-9.6,22.62-9.6,22.62v45.29c0,0,0,13.44,9.9,24.74
		c14.04,16.02,29.33,14.45,29.33,14.45H519.35z"/>
	<path d="M545.05,132.87c-1.98,1.99-2.96,4.4-2.98,7.24c0,2.85,0.98,5.28,2.96,7.28s4.39,3.01,7.24,3.01c2.83,0,5.24-1,7.23-3.01
		c1.98-2.01,2.96-4.44,2.98-7.28c0-2.82-0.99-5.23-2.98-7.24c-1.99-2-4.4-3.01-7.23-3.01C549.46,129.86,547.06,130.86,545.05,132.87
		 M560.69,148.54c-2.31,2.33-5.11,3.5-8.42,3.5c-3.29,0-6.09-1.16-8.4-3.5c-2.3-2.32-3.45-5.11-3.45-8.43
		c0-3.27,1.15-6.05,3.48-8.38c2.29-2.3,5.08-3.45,8.36-3.47c3.29,0,6.09,1.16,8.42,3.47c2.31,2.3,3.46,5.08,3.48,8.38
		C564.17,143.39,563.02,146.19,560.69,148.54 M554.51,135.6c-0.57-0.32-1.49-0.49-2.77-0.49h-1.96v4.73h2.08
		c0.97,0,1.7-0.1,2.18-0.29c0.89-0.36,1.32-1.03,1.34-2.04C555.38,136.58,555.09,135.94,554.51,135.6 M552.05,133.55
		c1.62,0,2.8,0.15,3.56,0.47c1.34,0.55,2,1.65,2.02,3.3c0,1.17-0.42,2.02-1.28,2.57c-0.46,0.29-1.08,0.5-1.9,0.63
		c1.02,0.16,2.96,1.82,2.96,3.3v0.96c0,0.29,0,0.61,0.03,0.97c0.02,0.34,0.05,0.56,0.12,0.68l0.08,0.16h-2.15
		c0-0.03,0-0.06-0.03-0.13c0-0.03,0-0.08-0.03-0.15l-0.05-0.42v-1.04c0-1.5-0.4-2.5-1.23-3c-0.48-0.28-1.32-0.4-2.56-0.42h-1.82
		v5.15h-2.3v-13.05H552.05z"/>
</g>
</svg>
