<svg xmlns="http://www.w3.org/2000/svg" viewBox="0 0 366 64">
  <g fill="none" fill-rule="evenodd">
    <path fill="#1C1B22" d="M0 35.628l4.201-4.087c2.041 2.363 4.518 3.82 7.694 3.82 3.284 0 4.681-1.24 4.681-3.23 0-1.61-.966-2.636-3.443-2.958l-2.799-.377C4.305 28.043.971 25.407.971 20.29c0-5.435 4.25-8.883 10.656-8.883 5.49 0 8.288 1.62 10.978 4.414l-4.032 4.038c-1.62-1.72-3.988-3.012-6.733-3.012-2.962 0-4.25 1.179-4.25 2.903 0 1.887 1.02 2.75 3.66 3.18l2.854.377c6.133.862 9.096 3.602 9.096 8.288 0 5.435-4.578 9.2-11.573 9.2-5.33 0-8.828-1.937-11.627-5.167M26.524 12.057h6.619l2.853 11.567 2.205 9.636h.218L41 23.624l3.284-11.567h6.243l3.393 11.567 2.636 9.636h.213l2.209-9.636 2.799-11.567h6.406l-7.699 28.094h-7.426l-3.606-12.38-2.101-7.644h-.158l-2.047 7.644-3.552 12.38h-7.322zM73.16 40.153h6.89V12.058h-6.89v28.095zm-.595-35.635V3.443C72.565 1.452 73.75 0 76.603 0c2.799 0 4.037 1.452 4.037 3.443v1.075c0 1.997-1.238 3.448-4.037 3.448-2.854 0-4.038-1.451-4.038-3.448zM84.241 35.628l4.201-4.087c2.041 2.363 4.518 3.82 7.694 3.82 3.284 0 4.681-1.24 4.681-3.23 0-1.61-.966-2.636-3.443-2.958l-2.799-.377c-6.029-.753-9.363-3.389-9.363-8.506 0-5.435 4.25-8.883 10.656-8.883 5.49 0 8.288 1.62 10.978 4.414l-4.037 4.038c-1.615-1.72-3.983-3.012-6.728-3.012-2.957 0-4.25 1.179-4.25 2.903 0 1.887 1.02 2.75 3.66 3.18l2.854.377c6.133.862 9.096 3.602 9.096 8.288 0 5.435-4.578 9.2-11.573 9.2-5.33 0-8.828-1.937-11.627-5.167M111.307 35.628l4.201-4.087c2.041 2.363 4.518 3.82 7.694 3.82 3.284 0 4.681-1.24 4.681-3.23 0-1.61-.966-2.636-3.443-2.958l-2.799-.377c-6.029-.753-9.363-3.389-9.363-8.506 0-5.435 4.25-8.883 10.656-8.883 5.49 0 8.289 1.62 10.979 4.414l-4.033 4.038c-1.62-1.72-3.988-3.012-6.733-3.012-2.962 0-4.25 1.179-4.25 2.903 0 1.887 1.02 2.75 3.66 3.18l2.854.377c6.134.862 9.096 3.602 9.096 8.288 0 5.435-4.577 9.2-11.573 9.2-5.33 0-8.828-1.937-11.627-5.167"/>
    <path fill="#1C1B22" d="M151.93 23.141v.431h11.517v-.486c0-3.874-1.991-6.51-5.543-6.51-3.607 0-5.975 2.69-5.975 6.565m-7.159 2.908c0-8.883 4.791-14.64 13.025-14.64 8.773 0 12.81 6.46 12.81 14.155v2.259H151.93v.703c0 4.033 2.314 6.782 6.837 6.782 3.388 0 5.434-1.615 7.158-3.82l3.71 4.142c-2.313 3.176-6.405 5.162-11.621 5.162-8.288 0-13.243-5.756-13.243-14.743M194.114 28.526V23.68c0-3.983-2.477-6.618-6.03-6.618-3.279 0-5.756 1.773-5.756 4.523v8.932c0 2.903 2.477 4.573 5.757 4.573 3.552 0 6.029-2.581 6.029-6.564zm-18.677-16.468h6.891v4.622h.218c1.02-3.225 4.033-5.27 7.748-5.27 7.105 0 11.033 5.27 11.033 14.639 0 9.417-3.928 14.748-11.033 14.748-3.715 0-6.678-2.15-7.748-5.33h-.218v15.451h-6.89v-38.86zM207.989 36.813v-.966c0-2.314 1.397-3.983 4.305-3.983 2.958 0 4.305 1.67 4.305 3.983v.966c0 2.259-1.347 3.928-4.305 3.928-2.908 0-4.305-1.67-4.305-3.928m0-20.396v-.971c0-2.314 1.397-3.983 4.305-3.983 2.958 0 4.305 1.67 4.305 3.983v.97c0 2.26-1.347 3.93-4.305 3.93-2.908 0-4.305-1.67-4.305-3.93M232.246 19.178l.947-.763c.664.833 1.461 1.313 2.546 1.313 1.13 0 1.793-.515 1.793-1.397 0-.669-.366-1.179-1.496-1.342l-.683-.105c-1.576-.232-2.76-.881-2.76-2.477 0-1.699 1.313-2.531 3.062-2.531 1.382 0 2.294.52 2.992 1.387l-.882.798c-.381-.535-1.114-1.05-2.21-1.05-1.099 0-1.679.515-1.679 1.327 0 .832.58 1.17 1.645 1.333l.664.104c1.897.277 2.63 1.11 2.63 2.407 0 1.665-1.213 2.676-3.175 2.676-1.58 0-2.63-.664-3.394-1.68M240.565 12.077h1.298l.917 3.71.911 3.76h.035l1.045-3.76 1.08-3.71h1.184l1.115 3.71 1.065 3.76h.03l.882-3.76.931-3.71h1.249l-2.279 8.58h-1.645l-1.199-4.122-.748-2.611h-.035l-.728 2.611-1.199 4.122h-1.615zM254.528 20.658h1.333v-8.58h-1.333v8.58zm-.148-11.34v-.217c0-.451.248-.748.812-.748.565 0 .818.297.818.748v.218c0 .45-.253.748-.818.748-.564 0-.812-.298-.812-.748zM258.135 19.178l.946-.763c.664.833 1.461 1.313 2.546 1.313 1.13 0 1.794-.515 1.794-1.397 0-.669-.367-1.179-1.497-1.342l-.683-.105c-1.576-.232-2.76-.881-2.76-2.477 0-1.699 1.313-2.531 3.062-2.531 1.382 0 2.294.52 2.992 1.387l-.882.798c-.381-.535-1.114-1.05-2.21-1.05-1.099 0-1.679.515-1.679 1.327 0 .832.58 1.17 1.645 1.333l.664.104c1.897.277 2.63 1.11 2.63 2.407 0 1.665-1.213 2.676-3.175 2.676-1.58 0-2.63-.664-3.393-1.68M266.65 19.178l.946-.763c.664.833 1.461 1.313 2.546 1.313 1.13 0 1.794-.515 1.794-1.397 0-.669-.367-1.179-1.497-1.342l-.683-.105c-1.576-.232-2.76-.881-2.76-2.477 0-1.699 1.313-2.531 3.062-2.531 1.382 0 2.294.52 2.992 1.387l-.882.798c-.381-.535-1.114-1.05-2.21-1.05-1.099 0-1.679.515-1.679 1.327 0 .832.58 1.17 1.645 1.333l.664.104c1.897.277 2.63 1.11 2.63 2.407 0 1.665-1.213 2.676-3.175 2.676-1.58 0-2.63-.664-3.393-1.68M233.826 35.032v.114h4.741v-.183c0-1.511-.916-2.527-2.278-2.527-1.447 0-2.463 1.095-2.463 2.596m-1.397.778c0-2.73 1.531-4.488 3.86-4.488 2.293 0 3.705 1.758 3.705 4.19v.635h-6.168v.396c0 1.482.947 2.596 2.542 2.596 1.08 0 1.912-.53 2.363-1.481l.951.684c-.55 1.159-1.783 1.956-3.393 1.956-2.329 0-3.86-1.758-3.86-4.488M242.513 40.103v-8.58h1.332v1.396h.065c.416-.966 1.15-1.595 2.427-1.595 1.764 0 2.879 1.194 2.879 3.275v5.504h-1.333v-5.271c0-1.531-.664-2.314-1.942-2.314-1.065 0-2.096.53-2.096 1.63v5.955h-1.332zM254.051 40.103c-.916 0-1.412-.58-1.412-1.412v-6.005h-1.416v-1.164h.797c.57 0 .753-.198.753-.782v-1.596h1.194v2.378h1.883v1.164h-1.883v6.253h1.749v1.164h-1.665zM258.166 40.103v-8.58h1.333v1.58h.084c.297-.818 1.08-1.58 2.477-1.58h.515v1.327h-.782c-1.432 0-2.294.614-2.294 1.432v5.82h-1.333zM265.418 35.032v.114h4.741v-.183c0-1.511-.916-2.527-2.279-2.527-1.446 0-2.462 1.095-2.462 2.596m-1.397.778c0-2.73 1.53-4.488 3.86-4.488 2.293 0 3.705 1.758 3.705 4.19v.635h-6.168v.396c0 1.482.946 2.596 2.541 2.596 1.08 0 1.913-.53 2.364-1.481l.95.684c-.55 1.159-1.783 1.956-3.393 1.956-2.328 0-3.86-1.758-3.86-4.488M280.075 36.542V35.08c0-1.53-.927-2.561-2.428-2.561-1.214 0-2.214.699-2.214 1.65v3.19c0 1.115 1 1.749 2.214 1.749 1.501 0 2.428-1.03 2.428-2.566zm-5.97-5.024h1.328v1.402h.069c.45-1.08 1.333-1.6 2.512-1.6 2.145 0 3.492 1.749 3.492 4.493 0 2.74-1.347 4.489-3.492 4.489-1.18 0-1.997-.535-2.512-1.595h-.07v4.726h-1.327V31.518zM284.071 40.103v-8.58h1.333v1.58h.084c.297-.818 1.08-1.58 2.477-1.58h.515v1.327h-.783c-1.431 0-2.293.614-2.293 1.432v5.82h-1.333zM291.325 35.032v.114h4.741v-.183c0-1.511-.916-2.527-2.279-2.527-1.446 0-2.462 1.095-2.462 2.596m-1.397.778c0-2.73 1.531-4.488 3.86-4.488 2.293 0 3.705 1.758 3.705 4.19v.635h-6.168v.396c0 1.482.947 2.596 2.542 2.596 1.08 0 1.912-.53 2.363-1.481l.951.684c-.55 1.159-1.783 1.956-3.394 1.956-2.328 0-3.859-1.758-3.859-4.488M300.01 40.103v-8.58h1.332v1.396h.064c.417-.966 1.15-1.595 2.428-1.595 1.764 0 2.878 1.194 2.878 3.275v5.504h-1.332v-5.271c0-1.531-.664-2.314-1.942-2.314-1.066 0-2.096.53-2.096 1.63v5.955h-1.333zM310.583 35.032v.114h4.74v-.183c0-1.511-.916-2.527-2.278-2.527-1.447 0-2.462 1.095-2.462 2.596m-1.397.778c0-2.73 1.53-4.488 3.859-4.488 2.294 0 3.706 1.758 3.706 4.19v.635h-6.168v.396c0 1.482.946 2.596 2.546 2.596 1.075 0 1.908-.53 2.358-1.481l.952.684c-.55 1.159-1.784 1.956-3.394 1.956-2.328 0-3.86-1.758-3.86-4.488M324.543 38.705h-.07c-.331.817-.975 1.595-2.407 1.595-1.764 0-2.893-1.194-2.893-3.275v-5.504h1.327v5.271c0 1.531.684 2.314 1.962 2.314 1.05 0 2.08-.515 2.08-1.65v-5.935h1.334v8.58h-1.333v-1.396zM328.929 40.103v-8.58h1.332v1.58h.085c.297-.818 1.08-1.58 2.477-1.58h.515v1.327h-.783c-1.432 0-2.294.614-2.294 1.432v5.82h-1.332zM334.763 38.622l.946-.762c.67.832 1.467 1.312 2.547 1.312 1.134 0 1.798-.515 1.798-1.397 0-.668-.367-1.179-1.496-1.347l-.684-.1c-1.58-.232-2.76-.881-2.76-2.476 0-1.7 1.314-2.532 3.058-2.532 1.382 0 2.298.52 2.992 1.382l-.877.798c-.382-.535-1.115-1.045-2.215-1.045-1.094 0-1.679.51-1.679 1.327 0 .833.585 1.165 1.65 1.333l.664.1c1.897.281 2.625 1.114 2.625 2.412 0 1.664-1.214 2.675-3.175 2.675-1.58 0-2.626-.664-3.394-1.68M343.91 27.795h1.332v5.122h.064c.417-.96 1.15-1.595 2.428-1.595 1.764 0 2.878 1.194 2.878 3.275V40.1h-1.332V34.83c0-1.531-.664-2.314-1.942-2.314-1.066 0-2.096.535-2.096 1.63v5.955h-1.333V27.795zM353.585 40.098h1.333v-8.58h-1.333v8.58zm-.148-11.335v-.218c0-.45.252-.748.812-.748.57 0 .817.298.817.748v.218c0 .446-.247.743-.817.743-.56 0-.812-.297-.812-.743zM363.956 36.542V35.08c0-1.53-.932-2.561-2.428-2.561-1.214 0-2.214.699-2.214 1.65v3.19c0 1.115 1 1.749 2.214 1.749 1.496 0 2.428-1.03 2.428-2.566zm-5.975-5.024h1.333v1.402h.069c.446-1.08 1.328-1.6 2.507-1.6 2.15 0 3.497 1.749 3.497 4.493 0 2.74-1.347 4.489-3.497 4.489-1.18 0-1.992-.535-2.507-1.595h-.07v4.726h-1.332V31.518zM239.03 55.985v-1.461c0-1.53-.927-2.561-2.428-2.561-1.214 0-2.214.698-2.214 1.65v3.19c0 1.115 1 1.749 2.214 1.749 1.501 0 2.428-1.03 2.428-2.567zm-5.97-5.023h1.328v1.402h.069c.45-1.08 1.333-1.6 2.512-1.6 2.145 0 3.492 1.749 3.492 4.493 0 2.74-1.347 4.489-3.492 4.489-1.18 0-1.997-.535-2.512-1.596h-.07v4.722h-1.327v-11.91zM243.047 59.546v-8.58h1.333v1.58h.084c.297-.817 1.08-1.58 2.477-1.58h.515v1.328h-.782c-1.432 0-2.294.614-2.294 1.431v5.821h-1.333zM255.193 55.87V54.64c0-1.813-1.015-2.695-2.447-2.695-1.427 0-2.442.882-2.442 2.695v1.229c0 1.813 1.015 2.695 2.442 2.695 1.432 0 2.447-.882 2.447-2.695m-6.321-.615c0-2.73 1.58-4.488 3.874-4.488 2.299 0 3.879 1.759 3.879 4.488 0 2.73-1.58 4.489-3.879 4.489-2.294 0-3.874-1.759-3.874-4.489M263.913 53.959v-.466c0-1.13-.718-1.664-1.847-1.664-1.13 0-1.843.535-1.843 1.664v.466c0 1.134.713 1.664 1.843 1.664s1.847-.53 1.847-1.664m-.649 5.504h-2.858c-.55.247-.803.629-.803 1.164 0 .748.516 1.362 1.863 1.362h1.234c1.481 0 2.343-.465 2.343-1.392 0-.683-.446-1.134-1.779-1.134m-1.13 3.611c-2.68 0-3.774-.763-3.774-2.115 0-.927.515-1.427 1.362-1.665v-.178c-.48-.233-.763-.62-.763-1.199 0-.867.615-1.283 1.477-1.496v-.07c-1.011-.48-1.61-1.431-1.61-2.625 0-1.744 1.278-2.963 3.225-2.963.614 0 1.164.12 1.63.337v-.148c0-.67.282-1.15.995-1.15h1.283v1.165h-1.63v.55c.615.53.981 1.297.981 2.209 0 1.749-1.283 2.962-3.244 2.962a4.47 4.47 0 0 1-.833-.084c-.564.149-1.13.431-1.13.966 0 .51.53.644 1.319.644h1.828c2.125 0 3.041.867 3.041 2.28 0 1.763-1.397 2.58-4.156 2.58M268.25 59.546v-8.58h1.333v1.58h.085c.297-.817 1.08-1.58 2.477-1.58h.515v1.328h-.783c-1.432 0-2.294.614-2.294 1.431v5.821h-1.332zM279.552 57.05v-1.412h-1.758c-1.516 0-2.2.466-2.2 1.298v.352c0 .847.664 1.323 1.694 1.323 1.318 0 2.264-.674 2.264-1.56zm1.561 2.497c-.976 0-1.377-.6-1.476-1.397h-.085c-.366 1.05-1.278 1.595-2.477 1.595-1.813 0-2.878-.996-2.878-2.59 0-1.616 1.164-2.513 3.661-2.513h1.694v-.847c0-1.213-.663-1.882-2.026-1.882-1.035 0-1.714.495-2.18 1.283l-.797-.753c.46-.912 1.496-1.68 3.042-1.68 2.065 0 3.294 1.08 3.294 2.894v4.726h.981v1.164h-.753zM284.078 59.546v-8.58h1.333v1.397h.064c.382-.882.981-1.595 2.314-1.595 1.13 0 2.16.515 2.625 1.744h.035c.317-.932 1.15-1.744 2.61-1.744 1.75 0 2.795 1.199 2.795 3.275v5.503h-1.333v-5.27c0-1.517-.58-2.31-1.877-2.31-1.046 0-2.012.53-2.012 1.626v5.954H289.3v-5.27c0-1.531-.58-2.31-1.843-2.31-1.05 0-2.046.53-2.046 1.626v5.954h-1.333z"/>
  </g>
</svg>
